<?xml version="1.0" encoding="UTF-8"?>
<svg id="Layer_1" data-name="Layer 1" xmlns="http://www.w3.org/2000/svg" xmlns:xlink="http://www.w3.org/1999/xlink" viewBox="0 0 40 40">
  <defs>
    <style>
      .cls-1 {
        fill: none;
      }

      .cls-2 {
        fill: #dae1cf;
      }

      .cls-3 {
        clip-path: url(#clippath);
      }
    </style>
    <clipPath id="clippath">
      <rect class="cls-1" width="40" height="40"/>
    </clipPath>
  </defs>
  <g class="cls-3">
    <path class="cls-2" d="M12.25,2.99C7.15,2.99,2.99,7.15,2.99,12.25v15.51c0,5.1,4.15,9.25,9.25,9.25h15.51c5.1,0,9.25-4.15,9.25-9.25v-15.51c0-5.1-4.15-9.25-9.25-9.25h-15.51ZM27.75,40h-15.51C5.49,40,0,34.51,0,27.75v-15.51C0,5.49,5.49,0,12.25,0h15.51c6.75,0,12.25,5.49,12.25,12.25v15.51c0,6.75-5.49,12.25-12.25,12.25"/>
    <path class="cls-2" d="M20,12.95c-3.89,0-7.05,3.16-7.05,7.05s3.16,7.05,7.05,7.05,7.05-3.16,7.05-7.05-3.16-7.05-7.05-7.05M20,30.12c-5.58,0-10.12-4.54-10.12-10.12s4.54-10.12,10.12-10.12,10.12,4.54,10.12,10.12-4.54,10.12-10.12,10.12"/>
    <path class="cls-2" d="M33.85,8.78c0,1.45-1.18,2.63-2.63,2.63s-2.64-1.18-2.64-2.63,1.18-2.63,2.64-2.63,2.63,1.18,2.63,2.63"/>
  </g>
</svg>